<svg width="96" height="102" viewBox="0 0 96 102" fill="none" xmlns="http://www.w3.org/2000/svg">
<path fill-rule="evenodd" clip-rule="evenodd" d="M48 5.94997C42.4048 5.94206 36.9954 8.08285 32.7685 11.9779C28.5416 15.873 25.7819 21.2599 24.9979 27.1461C24.214 33.0324 25.4585 39.0213 28.5023 44.0096C31.5461 48.9978 36.184 52.6493 41.5616 54.2912C33.92 55.2772 27.3664 58.1468 22.4256 63.3216C16.1408 69.8972 12.96 79.696 12.96 92.48C12.96 93.3366 13.2802 94.1582 13.8504 94.7639C14.4205 95.3697 15.1937 95.71 16 95.71C16.8062 95.71 17.5795 95.3697 18.1496 94.7639C18.7197 94.1582 19.04 93.3366 19.04 92.48C19.04 80.784 21.9392 72.896 26.6944 67.9184C31.456 62.934 38.5728 60.35 48 60.35C57.4272 60.35 64.544 62.934 69.312 67.9184C74.0608 72.9028 76.96 80.784 76.96 92.48C76.96 93.3366 77.2802 94.1582 77.8503 94.7639C78.4205 95.3697 79.1937 95.71 80 95.71C80.8062 95.71 81.5794 95.3697 82.1496 94.7639C82.7197 94.1582 83.04 93.3366 83.04 92.48C83.04 79.696 79.8592 69.904 73.568 63.3216C68.64 58.1536 62.08 55.2772 54.4384 54.2912C59.7979 52.6308 64.4148 48.9738 67.4428 43.9903C70.4707 39.0069 71.7068 33.0309 70.9246 27.1578C70.1424 21.2846 67.3942 15.9077 63.1837 12.0126C58.9733 8.11746 53.5827 5.96509 48 5.94997ZM30.88 30.6C30.88 25.7757 32.6837 21.149 35.8943 17.7377C39.1049 14.3264 43.4595 12.41 48 12.41C52.5405 12.41 56.895 14.3264 60.1056 17.7377C63.3162 21.149 65.12 25.7757 65.12 30.6C65.12 35.4243 63.3162 40.051 60.1056 43.4622C56.895 46.8735 52.5405 48.79 48 48.79C43.4595 48.79 39.1049 46.8735 35.8943 43.4622C32.6837 40.051 30.88 35.4243 30.88 30.6Z" fill="black"/>
</svg>
